<?xml version="1.0" encoding="UTF-8"?>
<svg xmlns="http://www.w3.org/2000/svg" viewBox="0 0 1019.12 402.94">
  <defs>
    <style>
      :root {
        --color-primary: #0d1117;
      }

      @media (prefers-color-scheme: dark) {
        :root {
          --color-primary: #f0f6fc;
        }
      }

      .c {
        fill: var(--color-primary);
      }

      .d {
        fill: var(--color-primary);
        fill-rule: evenodd;
      }

      .d, .e, .f, .g {
        stroke: var(--color-primary);
      }

      .d, .e, .g {
        stroke-miterlimit: 10;
      }

      .e, .f, .g {
        fill: none;
      }

      .e, .g {
        stroke-width: 1.16px;
      }

      .f {
        stroke-width: 3.47px;
      }

      .g {
        isolation: isolate;
        opacity: .3;
      }

      .h {
        fill: var(--color-primary);
      }
    </style>
  </defs>
  <g id="a">
    <path class="e" d="M32.1,16.86s6.71-11.36,31.42-14.83C80.78-.39,155.45.95,155.45.95c0,0,8.71,1.25,8.71,5.63M984.67,16.86s-6.71-11.36-31.42-14.83c-17.25-2.42-91.93-1.08-91.93-1.08,0,0-8.71,1.25-8.71,5.63M.62,145.55h45.77c9.87,0,17.86,8,17.86,17.86v68.9c0,14.73,4.55,29.1,13.04,41.15l79.59,112.98c2.93,4.16,4.5,9.12,4.5,14.2M1017.65,145.55h-45.77c-9.86,0-17.86,8-17.86,17.86v68.9c0,14.73-4.55,29.1-13.04,41.15l-79.59,112.98c-2.93,4.16-4.5,9.12-4.5,14.2M189.85,252.85h-79.95c-7.62,0-13.78-6.17-13.78-13.79v-79.99c0-7.62,6.17-13.79,13.78-13.79h79.93c7.62,0,13.79,6.17,13.79,13.79v79.99c.01,7.62-6.17,13.79-13.77,13.79ZM192.83,295.57h-32.15c-5.97,0-10.81-4.84-10.81-10.81s4.84-10.82,10.81-10.82h32.15c5.97,0,10.81,4.84,10.81,10.82s-4.84,10.81-10.81,10.81ZM127.24,36.08h-16.31c-3.68,0-6.66-2.99-6.66-6.67s2.99-6.67,6.66-6.67h16.31c3.68,0,6.66,2.99,6.66,6.67.02,3.67-2.98,6.67-6.66,6.67ZM195.1,85.97c0,18.88-15.3,34.19-34.17,34.19s-34.17-15.31-34.17-34.19,15.3-34.19,34.17-34.19,34.17,15.31,34.17,34.19ZM184.09,86.6c0,13.06-10.58,23.65-23.64,23.65s-23.64-10.59-23.64-23.65,10.58-23.65,23.64-23.65,23.64,10.59,23.64,23.65ZM203.98,341.24h-7.83c-1.19,0-2.16-.97-2.16-2.16s.97-2.16,2.16-2.16h7.83c1.19,0,2.16.97,2.16,2.16.01,1.2-.96,2.16-2.16,2.16ZM189.07,341.24h-7.83c-1.19,0-2.16-.97-2.16-2.16s.97-2.16,2.16-2.16h7.83c1.19,0,2.16.97,2.16,2.16s-.96,2.16-2.16,2.16ZM174.16,341.24h-7.83c-1.19,0-2.16-.97-2.16-2.16s.97-2.16,2.16-2.16h7.83c1.19,0,2.16.97,2.16,2.16s-.97,2.16-2.16,2.16ZM203.98,319.96h-7.83c-1.19,0-2.16-.97-2.16-2.16s.97-2.16,2.16-2.16h7.83c1.19,0,2.16.97,2.16,2.16.01,1.19-.96,2.16-2.16,2.16ZM189.11,319.96h-7.83c-1.19,0-2.16-.97-2.16-2.16s.97-2.16,2.16-2.16h7.83c1.19,0,2.16.97,2.16,2.16s-.97,2.16-2.16,2.16ZM174.23,319.96h-7.83c-1.19,0-2.16-.97-2.16-2.16s.97-2.16,2.16-2.16h7.83c1.19,0,2.16.97,2.16,2.16s-.96,2.16-2.16,2.16ZM159.37,319.96h-7.83c-1.19,0-2.16-.97-2.16-2.16s.97-2.16,2.16-2.16h7.83c1.19,0,2.16.97,2.16,2.16s-.97,2.16-2.16,2.16ZM203.98,330.6h-15.16c-1.19,0-2.16-.97-2.16-2.16s.97-2.16,2.16-2.16h15.16c1.19,0,2.16.97,2.16,2.16.02,1.2-.96,2.16-2.16,2.16ZM181.88,330.6h-7.83c-1.19,0-2.16-.97-2.16-2.16s.97-2.16,2.16-2.16h7.83c1.19,0,2.16.97,2.16,2.16s-.97,2.16-2.16,2.16ZM166.66,330.6h-7.83c-1.19,0-2.16-.97-2.16-2.16s.97-2.16,2.16-2.16h7.83c1.19,0,2.16.97,2.16,2.16s-.97,2.16-2.16,2.16ZM829.12,252.85h79.93c7.62,0,13.78-6.17,13.78-13.79v-79.99c0-7.62-6.17-13.79-13.78-13.79h-79.93c-7.62,0-13.78,6.17-13.78,13.79v79.99c0,7.62,6.17,13.79,13.78,13.79ZM826.15,295.57h32.15c5.97,0,10.81-4.84,10.81-10.81s-4.84-10.82-10.81-10.82h-32.15c-5.97,0-10.81,4.84-10.81,10.82s4.84,10.81,10.81,10.81ZM891.72,36.08h16.31c3.68,0,6.66-2.99,6.66-6.67s-2.99-6.67-6.66-6.67h-16.31c-3.68,0-6.66,2.99-6.66,6.67s2.98,6.67,6.66,6.67ZM891.21,86.52c0,18.88-15.3,34.19-34.17,34.19s-34.17-15.31-34.17-34.19,15.3-34.19,34.17-34.19,34.17,15.31,34.17,34.19ZM880.88,86.52c0,13.06-10.58,23.65-23.64,23.65s-23.64-10.59-23.64-23.65,10.58-23.65,23.64-23.65,23.64,10.59,23.64,23.65ZM814.98,341.24h7.83c1.19,0,2.16-.97,2.16-2.16s-.97-2.16-2.16-2.16h-7.83c-1.19,0-2.16.97-2.16,2.16s.96,2.16,2.16,2.16ZM829.89,341.24h7.83c1.19,0,2.16-.97,2.16-2.16s-.97-2.16-2.16-2.16h-7.83c-1.19,0-2.16.97-2.16,2.16s.97,2.16,2.16,2.16ZM844.82,341.24h7.83c1.19,0,2.16-.97,2.16-2.16s-.97-2.16-2.16-2.16h-7.83c-1.19,0-2.16.97-2.16,2.16-.02,1.2.96,2.16,2.16,2.16ZM814.98,319.96h7.83c1.19,0,2.16-.97,2.16-2.16s-.97-2.16-2.16-2.16h-7.83c-1.19,0-2.16.97-2.16,2.16s.96,2.16,2.16,2.16ZM829.85,319.96h7.83c1.19,0,2.16-.97,2.16-2.16s-.97-2.16-2.16-2.16h-7.83c-1.19,0-2.16.97-2.16,2.16s.97,2.16,2.16,2.16ZM844.73,319.96h7.83c1.19,0,2.16-.97,2.16-2.16s-.97-2.16-2.16-2.16h-7.83c-1.19,0-2.16.97-2.16,2.16s.97,2.16,2.16,2.16ZM859.6,319.96h7.83c1.19,0,2.16-.97,2.16-2.16s-.97-2.16-2.16-2.16h-7.83c-1.19,0-2.16.97-2.16,2.16s.96,2.16,2.16,2.16ZM814.98,330.6h15.16c1.19,0,2.16-.97,2.16-2.16s-.97-2.16-2.16-2.16h-15.16c-1.19,0-2.16.97-2.16,2.16s.96,2.16,2.16,2.16ZM837.09,330.6h7.83c1.19,0,2.16-.97,2.16-2.16s-.97-2.16-2.16-2.16h-7.83c-1.19,0-2.16.97-2.16,2.16-.02,1.2.96,2.16,2.16,2.16ZM852.31,330.6h7.83c1.19,0,2.16-.97,2.16-2.16s-.97-2.16-2.16-2.16h-7.83c-1.19,0-2.16.97-2.16,2.16s.96,2.16,2.16,2.16ZM971.87,40.06c0,8.32-6.75,15.07-15.07,15.07s-15.07-6.75-15.07-15.07,6.75-15.07,15.07-15.07,15.07,6.75,15.07,15.07ZM971.87,99.83c0,8.32-6.75,15.07-15.07,15.07s-15.07-6.75-15.07-15.07,6.75-15.07,15.07-15.07,15.07,6.75,15.07,15.07ZM1001.46,70.2c0,8.32-6.75,15.07-15.08,15.07s-15.07-6.75-15.07-15.07,6.75-15.07,15.07-15.07,15.08,6.75,15.08,15.07ZM941.73,70.2c0,8.32-6.75,15.07-15.07,15.07s-15.07-6.75-15.07-15.07,6.75-15.07,15.07-15.07,15.07,6.75,15.07,15.07ZM799.2,385.92H218.6c-2.02,0-3.64-1.64-3.64-3.64V27c0-2.02,1.63-3.64,3.64-3.64h580.59c2.02,0,3.64,1.64,3.64,3.64v355.28c.02,2.01-1.62,3.64-3.62,3.64ZM239.77,32.96h540.6v339.87H239.77V32.96ZM28.03,80.09c-1.87-6.84-1.87-14.06,0-20.9.29-1.08,1.28-1.83,2.39-1.83h17.08c2.47,0,4.47-2,4.47-4.47v-17.08c0-1.12.75-2.1,1.83-2.4,6.84-1.87,14.06-1.87,20.9,0,1.08.29,1.83,1.28,1.83,2.4v17.08c0,2.47,2,4.47,4.47,4.47h17.08c1.12,0,2.1.75,2.4,1.83,1.87,6.84,1.87,14.06,0,20.9-.29,1.08-1.28,1.83-2.4,1.83h-17.08c-2.47,0-4.47,2-4.47,4.47v17.08c0,1.12-.75,2.1-1.83,2.39-6.84,1.87-14.06,1.87-20.9,0-1.08-.29-1.83-1.28-1.83-2.39v-17.08c0-2.47-2-4.47-4.47-4.47h-17.08c-1.12,0-2.1-.75-2.39-1.83Z"/>
    <path class="f" d="M1.95,134.95c-.61-54.13-.91-81.19,12.71-100.21,4.4-6.14,9.74-11.54,15.83-16.01,18.86-13.84,45.93-13.84,100.06-13.84h758.01c54.13,0,81.2,0,100.06,13.84,6.09,4.47,11.43,9.87,15.83,16.01,13.63,19.02,13.32,46.08,12.71,100.21l-1.03,91.42c-.82,72.92-1.23,109.38-20.02,134.88-6.07,8.24-13.39,15.48-21.7,21.46-25.71,18.5-62.17,18.5-135.1,18.5H179.81c-72.93,0-109.39,0-135.1-18.5-8.31-5.98-15.63-13.22-21.7-21.46C4.22,335.75,3.81,299.29,2.98,226.36l-1.03-91.42Z"/>
    <path class="g" d="M1017.65,95.32l-3.45-18.85c-6.41-34.99-36.91-60.41-72.48-60.41H76.54c-35.57,0-66.07,25.42-72.48,60.41l-3.45,18.85M207.82,86.72c0,26.08-21.14,47.22-47.22,47.22s-47.22-21.14-47.22-47.22,21.14-47.22,47.22-47.22,47.22,21.14,47.22,47.22ZM904.44,86.44c0,26.08-21.14,47.22-47.22,47.22s-47.22-21.14-47.22-47.22,21.14-47.22,47.22-47.22,47.22,21.14,47.22,47.22Z"/>
    <path class="d" d="M307.62,24.99c1.23,0,2.23-1,2.23-2.23s-1-2.23-2.23-2.23-2.23,1-2.23,2.23,1,2.23,2.23,2.23ZM713.99,24.99c1.23,0,2.23-1,2.23-2.23s-1-2.23-2.23-2.23-2.23,1-2.23,2.23,1,2.23,2.23,2.23Z"/>
  </g>
  <g id="b">
    <path class="h" d="M566.33,99.48l-8.49,14.04-1.95-.63c-7.51-2.43-19.8-1.98-27.01.03l-1.91.53-7.94-13.43c-9.31,19.17-8.93,32.54-4.09,41.12,5.18,9.19,15.88,13.59,27.43,13.44,13.49-.17,24.62-5.44,29.62-15,4.68-8.95,4.34-22.27-5.66-40.1h0ZM527.72,127.32c5.11.03,8.13,4.24,8.71,10.14-10.27,4.96-14.93.94-16.93-7.35,3.15-1.95,5.9-2.81,8.22-2.8h0ZM557.96,127.32c2.32-.01,5.07.84,8.22,2.8-2,8.29-6.66,12.3-16.93,7.35.58-5.9,3.6-10.11,8.71-10.14h0ZM476.71,141.43c-.34,0-.68,0-1.01,0-8.35.15-15.54,2.93-20.96,7.35-12.02,9.81-15.85,27.88-3.55,46,5.62,9.41,12.3,15.01,19.59,17.76,9.09,3.43,18.45,2.44,27.66,1.14,9.21-1.3,18.23-2.94,26.82-2.33,8.59.61,17.18,2.82,25.05,11.39,5.36,5.85,12.98-.45,6.59-6.69-9.69-9.47-20.07-13.12-30.27-13.85-10.2-.73-19.98,1.3-28.84,2.55-8.86,1.25-16.68,1.81-23.4-.72-3.98-1.5-7.83-4.1-11.5-8.62h97.35c3.78-14.47,4.11-29.44.52-39.32-5.47,2.35-11.74,3.57-18.32,3.65h0c-8.26.1-16.46-1.92-22.95-6.32-1.29.83-2.6,1.72-3.96,2.68l-1.59,1.12-1.52-1.21c-12.91-10.3-25.19-14.52-35.71-14.61h0Z"/>
    <g>
      <path class="c" d="M329.7,302.38v-52.49h12.31c5.42,0,9.91,1.06,13.46,3.17,3.55,2.11,6.2,5.11,7.96,9,1.75,3.89,2.63,8.52,2.63,13.9s-.86,10.04-2.59,14-4.37,7.02-7.92,9.18c-3.55,2.16-7.99,3.24-13.32,3.24h-12.53ZM334.02,298.71h7.56c4.61,0,8.4-.95,11.38-2.84,2.98-1.9,5.16-4.56,6.55-7.99,1.39-3.43,2.09-7.4,2.09-11.92s-.7-8.52-2.09-11.88c-1.39-3.36-3.58-5.95-6.55-7.78-2.98-1.82-6.77-2.74-11.38-2.74h-7.56v45.14Z"/>
      <path class="c" d="M392.41,303.32c-3.31,0-6.32-.8-9.04-2.41-2.71-1.61-4.87-3.9-6.48-6.88-1.61-2.98-2.41-6.58-2.41-10.8,0-3.12.46-5.93,1.37-8.42.91-2.5,2.17-4.62,3.78-6.37,1.61-1.75,3.42-3.1,5.44-4.03,2.02-.94,4.1-1.4,6.26-1.4,3.07,0,5.71.71,7.92,2.12,2.21,1.42,3.91,3.46,5.11,6.12,1.2,2.66,1.8,5.87,1.8,9.61,0,.53-.01,1.04-.04,1.55-.02.5-.08,1.02-.18,1.55h-27.22c.1,3.07.73,5.8,1.91,8.17,1.18,2.38,2.8,4.25,4.86,5.62,2.06,1.37,4.49,2.05,7.27,2.05,2.06,0,3.91-.3,5.54-.9,1.63-.6,3.17-1.4,4.61-2.41l1.66,3.1c-1.54.96-3.26,1.82-5.18,2.59-1.92.77-4.25,1.15-6.98,1.15ZM378.73,280.57h23.54c0-4.61-.98-8.09-2.95-10.44-1.97-2.35-4.63-3.53-7.99-3.53-2.06,0-4.01.55-5.83,1.66-1.82,1.1-3.34,2.69-4.54,4.75-1.2,2.06-1.94,4.58-2.23,7.56Z"/>
      <path class="c" d="M430.72,303.32c-3.31,0-6.29-.79-8.93-2.38-2.64-1.58-4.73-3.88-6.26-6.88-1.54-3-2.3-6.61-2.3-10.84s.83-7.92,2.48-10.94c1.66-3.02,3.83-5.33,6.52-6.91,2.69-1.58,5.62-2.38,8.78-2.38,2.59,0,4.79.48,6.59,1.44,1.8.96,3.35,2.04,4.64,3.24l-2.38,2.88c-1.2-1.1-2.51-2.03-3.92-2.77-1.42-.74-3.01-1.12-4.79-1.12-2.59,0-4.91.7-6.95,2.09-2.04,1.39-3.65,3.32-4.82,5.8-1.18,2.47-1.76,5.36-1.76,8.68s.56,6.13,1.69,8.6c1.13,2.47,2.7,4.39,4.72,5.76s4.37,2.05,7.06,2.05c1.97,0,3.79-.41,5.47-1.22,1.68-.82,3.17-1.82,4.46-3.02l2.09,2.95c-1.68,1.44-3.55,2.63-5.62,3.56-2.06.94-4.32,1.4-6.77,1.4Z"/>
      <path class="c" d="M452.32,302.38v-57.24h4.18v41.4h.14l18.36-22.61h4.75l-12.53,15.34,14.54,23.11h-4.61l-12.38-20.16-8.28,9.79v10.37h-4.18Z"/>
      <path class="c" d="M488.75,319.66c-.72,0-1.44-.07-2.16-.22-.72-.14-1.34-.34-1.87-.58l.86-3.53c.38.14.86.28,1.44.4.58.12,1.13.18,1.66.18,2.35,0,4.29-.92,5.83-2.77,1.54-1.85,2.78-4.16,3.74-6.95l1.01-3.31-15.7-38.95h4.46l8.93,23.54c.62,1.68,1.3,3.47,2.02,5.36.72,1.9,1.42,3.71,2.09,5.44h.36c.58-1.73,1.16-3.54,1.76-5.44.6-1.9,1.16-3.68,1.69-5.36l7.85-23.54h4.25l-14.98,42.91c-.72,2.21-1.67,4.28-2.84,6.23-1.18,1.94-2.6,3.53-4.28,4.75-1.68,1.22-3.72,1.84-6.12,1.84Z"/>
      <path class="c" d="M544.4,303.32c-3.22,0-6.18-.62-8.89-1.87-2.71-1.25-5.06-3.07-7.06-5.47-1.99-2.4-3.53-5.27-4.61-8.6-1.08-3.34-1.62-7.09-1.62-11.27s.55-8,1.66-11.34c1.1-3.34,2.66-6.18,4.68-8.53,2.02-2.35,4.4-4.15,7.16-5.4,2.76-1.25,5.8-1.87,9.11-1.87,3.12,0,5.84.65,8.17,1.94,2.33,1.3,4.21,2.76,5.65,4.39l-2.45,2.81c-1.39-1.58-3.04-2.85-4.93-3.82-1.9-.96-4.02-1.44-6.37-1.44-3.74,0-6.97.94-9.68,2.81-2.71,1.87-4.81,4.55-6.3,8.03-1.49,3.48-2.23,7.6-2.23,12.35s.73,8.88,2.2,12.38c1.46,3.5,3.54,6.22,6.23,8.14,2.69,1.92,5.86,2.88,9.5,2.88,2.64,0,5-.54,7.09-1.62s4.07-2.65,5.94-4.72l2.45,2.74c-2.02,2.35-4.27,4.19-6.77,5.51-2.5,1.32-5.47,1.98-8.93,1.98Z"/>
      <path class="c" d="M575.36,303.32c-1.15,0-2.11-.24-2.88-.72s-1.33-1.22-1.69-2.23c-.36-1.01-.54-2.23-.54-3.67v-51.55h4.18v51.98c0,.86.17,1.5.5,1.91.33.41.74.61,1.22.61.14,0,.31-.01.5-.04.19-.02.48-.06.86-.11l.65,3.38c-.38.1-.78.19-1.19.29-.41.1-.95.14-1.62.14Z"/>
      <path class="c" d="M597.9,303.32c-2.06,0-3.94-.4-5.62-1.19-1.68-.79-3.02-1.97-4.03-3.53-1.01-1.56-1.51-3.54-1.51-5.94,0-4.22,1.96-7.45,5.87-9.68,3.91-2.23,10.09-3.8,18.54-4.72.1-1.92-.08-3.75-.54-5.51-.46-1.75-1.32-3.2-2.59-4.36-1.27-1.15-3.13-1.73-5.58-1.73s-4.79.49-6.88,1.48c-2.09.98-3.83,1.96-5.22,2.92l-1.8-3.1c.96-.67,2.17-1.39,3.64-2.16,1.46-.77,3.11-1.43,4.93-1.98,1.82-.55,3.77-.83,5.83-.83,3.07,0,5.52.66,7.34,1.98,1.82,1.32,3.13,3.11,3.92,5.36.79,2.26,1.19,4.82,1.19,7.7v24.34h-3.46l-.43-4.9h-.29c-1.87,1.58-3.94,2.95-6.19,4.1-2.26,1.15-4.63,1.73-7.13,1.73ZM598.76,299.72c2.11,0,4.15-.49,6.12-1.48,1.97-.98,4.06-2.46,6.26-4.43v-12.46c-4.99.53-8.98,1.3-11.95,2.3-2.98,1.01-5.1,2.23-6.37,3.67-1.27,1.44-1.91,3.14-1.91,5.11,0,2.69.77,4.57,2.3,5.65s3.38,1.62,5.54,1.62Z"/>
      <path class="c" d="M638.22,303.32c-2.78,0-5.4-.52-7.85-1.55-2.45-1.03-4.54-2.27-6.26-3.71l2.3-3.02c1.63,1.34,3.38,2.47,5.26,3.38,1.87.91,4.1,1.37,6.7,1.37,2.93,0,5.14-.71,6.62-2.12,1.49-1.42,2.23-3.11,2.23-5.08,0-1.54-.47-2.82-1.4-3.85-.94-1.03-2.11-1.88-3.53-2.56-1.42-.67-2.87-1.27-4.36-1.8-1.87-.72-3.71-1.5-5.51-2.34s-3.29-1.96-4.46-3.35c-1.18-1.39-1.76-3.17-1.76-5.33,0-1.92.49-3.66,1.48-5.22.98-1.56,2.41-2.81,4.28-3.74,1.87-.94,4.15-1.4,6.84-1.4,2.11,0,4.15.4,6.12,1.19,1.97.79,3.65,1.76,5.04,2.92l-2.16,2.88c-1.3-1.01-2.66-1.84-4.1-2.48-1.44-.65-3.1-.97-4.97-.97-2.83,0-4.93.67-6.3,2.02s-2.05,2.88-2.05,4.61c0,1.39.41,2.54,1.22,3.46.82.91,1.9,1.67,3.24,2.27,1.34.6,2.74,1.19,4.18,1.76,1.54.58,3.02,1.16,4.46,1.76,1.44.6,2.75,1.32,3.92,2.16,1.18.84,2.12,1.88,2.84,3.13.72,1.25,1.08,2.81,1.08,4.68,0,1.97-.5,3.79-1.51,5.47-1.01,1.68-2.47,3.01-4.39,4-1.92.98-4.32,1.48-7.2,1.48Z"/>
      <path class="c" d="M661.33,302.38v-57.24h4.18v16.34l-.07,8.42c1.92-1.97,3.92-3.61,6.01-4.93,2.09-1.32,4.45-1.98,7.09-1.98,3.98,0,6.92,1.24,8.82,3.71,1.9,2.47,2.84,6.18,2.84,11.12v24.55h-4.18v-23.98c0-3.98-.66-6.92-1.98-8.82-1.32-1.9-3.49-2.84-6.52-2.84-2.21,0-4.2.58-5.98,1.73-1.78,1.15-3.79,2.88-6.05,5.18v28.73h-4.18Z"/>
    </g>
  </g>
</svg>